<svg xmlns="http://www.w3.org/2000/svg" viewBox="0 0 170 163"><defs><style>.cls-2{fill:none;stroke:#fff;stroke-miterlimit:10;stroke-width:14px;}</style></defs><g><g><path class="cls-1" d="M81.5,163A81.5,81.5,0,0,1,23.87,23.87,81.5,81.5,0,0,1,139.13,139.13,81,81,0,0,1,81.5,163Zm0-156A74.47,74.47,0,1,0,156,81.5,74.56,74.56,0,0,0,81.5,7Z"/><path class="cls-1" d="M48,124.72a5.89,5.89,0,0,0,8.34.06c7.73-7.61,16.08-11.47,24.84-11.47h.6c8.76,0,17.11,3.86,24.84,11.47a5.9,5.9,0,1,0,8.28-8.4c-10-9.87-21.14-14.87-33.08-14.87h-.68c-11.94,0-23.07,5-33.08,14.87a5.89,5.89,0,0,0-.06,8.34Z"/><circle class="cls-1" cx="50.13" cy="63.85" r="12.95"/><circle class="cls-1" cx="112.87" cy="63.85" r="12.95"/><path class="cls-2" d="M163,46.1c0,9.8-6.52,17.75-14.57,17.75s-14.57-8-14.57-17.75h0c0-16.77,14.57-32.55,14.57-32.55S163,29.33,163,46.1Z"/><path class="cls-1" d="M163,46.1c0,9.8-6.52,17.75-14.57,17.75s-14.57-8-14.57-17.75h0c0-16.77,14.57-32.55,14.57-32.55S163,29.33,163,46.1Z"/></g></g></svg>