<!--?xml version="1.0" encoding="utf-8"?-->
<!-- Generator: Adobe Illustrator 15.1.0, SVG Export Plug-In . SVG Version: 6.00 Build 0)  -->

<svg version="1.1" id="_x32_" xmlns="http://www.w3.org/2000/svg" xmlns:xlink="http://www.w3.org/1999/xlink" x="0px" y="0px" width="512px" height="512px" viewBox="0 0 512 512" xml:space="preserve">
<g>
	<polygon class="st0" points="56.875,203.172 40.625,203.172 40.625,239.75 0,239.75 0,459.172 40.625,459.172 40.625,495.75 
		56.875,495.75 56.875,459.172 97.531,459.172 97.531,239.75 56.875,239.75 	"></polygon>
	<polygon class="st0" points="195.047,75.844 178.797,75.844 178.797,109.047 138.156,109.047 138.156,320.344 178.797,320.344 
		178.797,360.297 195.047,360.297 195.047,320.344 235.688,320.344 235.688,109.047 195.047,109.047 	"></polygon>
	<polygon class="st0" points="333.203,151.703 316.953,151.703 316.953,184.891 276.313,184.891 276.313,412.453 316.953,412.453 
		316.953,452.406 333.203,452.406 333.203,412.453 373.844,412.453 373.844,184.891 333.203,184.891 	"></polygon>
	<polygon class="st0" points="471.375,49.438 471.375,16.25 455.109,16.25 455.109,49.438 414.469,49.438 414.469,293.25 
		455.109,293.25 455.109,333.203 471.375,333.203 471.375,293.25 512,293.25 512,49.438 	"></polygon>
</g>
</svg>
