<svg xmlns="http://www.w3.org/2000/svg" viewBox="0 0 163.46 163.46"><defs></defs><g><g><path class="cls-1" d="M81.73,163.46A81.73,81.73,0,0,1,23.94,23.94,81.73,81.73,0,1,1,139.52,139.52,81.19,81.19,0,0,1,81.73,163.46ZM81.73,8A73.77,73.77,0,1,0,155.5,81.73,73.85,73.85,0,0,0,81.73,8Z"/><path class="cls-1" d="M114.58,100.62a5.92,5.92,0,0,0-8.36-.06c-7.75,7.64-16.13,11.51-24.91,11.51h-.6c-8.78,0-17.16-3.87-24.91-11.51A5.92,5.92,0,0,0,47.5,109c10,9.89,21.2,14.91,33.17,14.91h.68c12,0,23.13-5,33.17-14.91a5.93,5.93,0,0,0,.06-8.37Z"/><path class="cls-1" d="M63.77,72.6a5.24,5.24,0,0,1-3.53-1.35c-3.28-2.92-6.67-3.8-10.39-2.67a14.94,14.94,0,0,0-4.92,2.63,5.31,5.31,0,1,1-7.16-7.83,25.2,25.2,0,0,1,9-5C54,56.23,61.31,58,67.31,63.34a5.3,5.3,0,0,1-3.54,9.26Z"/><path class="cls-1" d="M120.67,72.6a5.24,5.24,0,0,1-3.53-1.35c-3.28-2.92-6.68-3.8-10.4-2.67a15.21,15.21,0,0,0-4.92,2.63,5.3,5.3,0,1,1-7.15-7.83,25.09,25.09,0,0,1,9-5c7.24-2.19,14.53-.44,20.52,4.92a5.3,5.3,0,0,1-3.53,9.26Z"/></g></g></svg>