<!--?xml version="1.0" encoding="utf-8"?-->
<!-- Generator: Adobe Illustrator 18.1.1, SVG Export Plug-In . SVG Version: 6.00 Build 0)  -->

<svg version="1.1" id="_x32_" xmlns="http://www.w3.org/2000/svg" xmlns:xlink="http://www.w3.org/1999/xlink" x="0px" y="0px" viewBox="0 0 512 512" xml:space="preserve">
<g>
	<path class="st0" d="M502.615,326.771c-12.588-13.726-36.049-10.809-51.744,0.804c-14.34,11.938-86.809,59.79-86.809,59.79H244.914
		l-0.379,0.19c-6.276-0.217-11.18-5.472-10.989-11.75c0.226-6.267,5.508-11.188,11.739-10.972h87.414
		c17.618,0,31.914-14.485,31.914-32.103c0-17.646-14.295-31.932-31.914-31.932c-15.965,0-47.862,0-127.654,0
		c-79.802,0-96.39,33.53-110.261,56.549V489.22l149.499,15.415c56.25,3.079,83.224,0,123.302-33.9
		c0,0,119.671-87.442,134.074-99.416C515.357,358.748,515.212,340.498,502.615,326.771z"></path>
	<rect x="0" y="326.238" class="st0" width="69.354" height="168.761"></rect>
	<circle class="st0" cx="263.932" cy="211.417" r="51.248"></circle>
	<path class="st0" d="M385.671,179.224c24.148,0,43.717-19.57,43.717-43.708c0-24.139-19.569-43.708-43.717-43.708
		c-24.129,0-43.698,19.569-43.698,43.708C341.973,159.654,361.542,179.224,385.671,179.224z"></path>
	<path class="st0" d="M277.794,81.189c20.644,0,37.377-16.734,37.377-37.368c0-20.643-16.734-37.377-37.377-37.377
		c-20.634,0-37.368,16.734-37.368,37.377C240.426,64.455,257.16,81.189,277.794,81.189z"></path>
</g>
</svg>
