<!--?xml version="1.0" encoding="utf-8"?-->
<!-- Generator: Adobe Illustrator 18.1.1, SVG Export Plug-In . SVG Version: 6.00 Build 0)  -->

<svg version="1.1" id="_x32_" xmlns="http://www.w3.org/2000/svg" xmlns:xlink="http://www.w3.org/1999/xlink" x="0px" y="0px" viewBox="0 0 512 512" xml:space="preserve">
<g>
	<path class="st0" d="M212.306,90.273c0-4.901,6.775-8.079,10.814-9.155C235.612,77.793,256,79.04,256,79.04
		s20.388-1.247,32.874,2.078c4.046,1.076,10.82,4.254,10.82,9.155c0,12.068,0,19.976,0,19.976h32.456c0,0,0-13.733,0-24.966
		c0-21.224-3.748-42.447-76.15-42.447c-72.409,0-76.157,21.223-76.157,42.447c0,11.233,0,24.966,0,24.966h32.462
		C212.306,110.249,212.306,102.341,212.306,90.273z"></path>
	<path class="st0" d="M508.372,153.944c-3.502-8.263-9.32-15.272-16.652-20.224c-7.326-4.957-16.234-7.864-25.726-7.864h-58.941
		H353.38H158.62h-53.673H46.006c-6.325,0-12.404,1.286-17.912,3.622c-8.263,3.489-15.272,9.308-20.23,16.653
		C2.912,153.456,0,162.371,0,171.856v251.302c0,6.332,1.292,12.404,3.628,17.912c3.488,8.269,9.307,15.272,16.652,20.23
		c7.319,4.958,16.222,7.864,25.726,7.864h58.941h53.673H353.38h53.673h58.941c6.313,0,12.392-1.285,17.912-3.622
		c8.262-3.494,15.266-9.314,20.23-16.652c4.951-7.326,7.863-16.241,7.863-25.732V171.856
		C512,165.531,510.702,159.452,508.372,153.944z M104.947,447.94H46.006c-3.45,0-6.692-0.696-9.643-1.944
		c-4.445-1.874-8.231-5.028-10.922-8.991c-2.666-3.958-4.217-8.681-4.217-13.848V171.856c0-3.451,0.684-6.686,1.95-9.643
		c1.874-4.432,5.021-8.232,8.991-10.916c3.951-2.672,8.681-4.223,13.841-4.223h58.941V447.94z M353.38,447.94H158.62V147.074H353.38
		V447.94z M490.77,423.158c0,3.463-0.703,6.693-1.944,9.649c-1.874,4.439-5.027,8.231-8.991,10.916
		c-3.976,2.665-8.681,4.217-13.841,4.217h-58.941V147.074h58.941c3.438,0,6.68,0.703,9.631,1.95
		c4.432,1.868,8.244,5.014,10.909,8.991c2.678,3.958,4.23,8.674,4.236,13.841V423.158z"></path>
</g>
</svg>
